<?xml version="1.0" standalone="no"?>
<!DOCTYPE svg PUBLIC "-//W3C//DTD SVG 20010904//EN"
 "http://www.w3.org/TR/2001/REC-SVG-20010904/DTD/svg10.dtd">
<svg version="1.0" xmlns="http://www.w3.org/2000/svg"
 width="256.000000pt" height="256.000000pt" viewBox="0 0 256.000000 256.000000"
 preserveAspectRatio="xMidYMid meet">

<g transform="translate(0.000000,256.000000) scale(0.100000,-0.100000)"
fill="#fff" stroke="none">
<path d="M252 2529 c-148 -29 -250 -162 -240 -313 15 -246 322 -366 498 -195
88 86 118 227 72 332 -57 128 -197 203 -330 176z"/>
<path d="M1210 2527 c-172 -38 -272 -220 -214 -390 20 -60 88 -135 150 -167
68 -35 187 -36 255 -2 179 88 228 319 98 466 -71 81 -181 116 -289 93z"/>
<path d="M2203 2530 c-140 -28 -237 -149 -237 -295 0 -312 423 -407 561 -127
37 76 40 183 5 253 -60 123 -200 195 -329 169z"/>
<path d="M237 1570 c-91 -23 -168 -84 -209 -169 -35 -70 -32 -177 5 -253 89
-182 327 -223 472 -82 123 120 122 310 -2 429 -63 60 -185 95 -266 75z"/>
<path d="M1195 1567 c-223 -57 -298 -334 -135 -497 148 -149 389 -104 478 88
102 222 -105 469 -343 409z"/>
<path d="M2187 1570 c-137 -34 -228 -149 -229 -290 -2 -207 204 -352 396 -280
77 29 132 81 168 155 86 183 -39 400 -242 419 -30 3 -72 1 -93 -4z"/>
<path d="M215 607 c-61 -25 -94 -47 -133 -92 -50 -56 -72 -119 -72 -201 0
-118 93 -244 205 -276 72 -20 158 -14 219 16 225 110 223 428 -3 538 -54 26
-169 35 -216 15z"/>
<path d="M1172 604 c-66 -24 -147 -105 -171 -170 -53 -140 0 -298 123 -368
150 -87 337 -32 418 124 32 63 33 205 1 265 -29 54 -87 110 -142 137 -59 29
-167 34 -229 12z"/>
<path d="M2154 599 c-70 -27 -128 -79 -161 -147 -38 -77 -39 -183 -3 -255 94
-187 330 -229 477 -85 91 89 115 228 60 341 -67 136 -231 201 -373 146z"/>
</g>
</svg>
